<?xml version="1.0" encoding="utf-8"?>
<!-- Generator: Adobe Illustrator 26.2.1, SVG Export Plug-In . SVG Version: 6.00 Build 0)  -->
<svg version="1.1" id="Calque_1" xmlns="http://www.w3.org/2000/svg" xmlns:xlink="http://www.w3.org/1999/xlink" x="0px" y="0px"
	 viewBox="0 0 280 280" style="enable-background:new 0 0 280 280;" xml:space="preserve">
<style type="text/css">
	.st0{enable-background:new    ;}
	.st1{clip-path:url(#SVGID_00000026135678509431351640000015003144377975140031_);enable-background:new    ;}
	.st2{fill:#A85C00;}
	.st3{fill:#A35900;}
	.st4{fill:#9E5600;}
	.st5{clip-path:url(#SVGID_00000104677539477865301870000007001777004425660602_);enable-background:new    ;}
	.st6{fill:#854800;}
	.st7{fill:#8A4B00;}
	.st8{fill:#8F4E00;}
	.st9{fill:#945100;}
	.st10{fill:#995300;}
	.st11{clip-path:url(#SVGID_00000183230585905935804860000005411312741986210973_);enable-background:new    ;}
	.st12{fill:#8B4C00;}
	.st13{clip-path:url(#SVGID_00000162315423827387351960000001433465975032903614_);enable-background:new    ;}
	.st14{clip-path:url(#SVGID_00000093168749451256708700000008550300888242516103_);enable-background:new    ;}
	.st15{fill:#DF7900;}
	.st16{clip-path:url(#SVGID_00000154397926684470100710000009089488961337027518_);enable-background:new    ;}
	.st17{clip-path:url(#SVGID_00000006695373491307724400000007901998215545467308_);enable-background:new    ;}
	.st18{clip-path:url(#SVGID_00000163059255574921184130000012895281259342141101_);enable-background:new    ;}
	.st19{clip-path:url(#SVGID_00000164491340514835017060000003244470903163794564_);enable-background:new    ;}
	.st20{fill:#B46200;}
	.st21{clip-path:url(#SVGID_00000028282841460597321420000010744918253868374946_);enable-background:new    ;}
	.st22{clip-path:url(#SVGID_00000070119550686297763700000014624333407520315802_);enable-background:new    ;}
	.st23{clip-path:url(#SVGID_00000115514078093806766460000014882183092392128942_);enable-background:new    ;}
	.st24{clip-path:url(#SVGID_00000173841790528536893350000009537059489990955199_);enable-background:new    ;}
	.st25{clip-path:url(#SVGID_00000005266951411450660170000013633068026656880808_);enable-background:new    ;}
	.st26{clip-path:url(#SVGID_00000047025005990144118730000013386675296704271769_);enable-background:new    ;}
	.st27{clip-path:url(#SVGID_00000034048421486969690520000009005761661449098881_);enable-background:new    ;}
	.st28{clip-path:url(#SVGID_00000157274976848957065720000013825992682886826374_);enable-background:new    ;}
</style>
<g>
	<g>
		<g class="st0">
			<g class="st0">
				<defs>
					<path id="SVGID_1_" class="st0" d="M175.56,137.06l1.37,0.74c-0.79-0.43-1.47-0.6-2.03-0.52l-1.37-0.74
						C174.09,136.46,174.77,136.63,175.56,137.06z"/>
				</defs>
				<clipPath id="SVGID_00000062899476990293847810000008915227702964755624_">
					<use xlink:href="#SVGID_1_"  style="overflow:visible;"/>
				</clipPath>
				<g style="clip-path:url(#SVGID_00000062899476990293847810000008915227702964755624_);enable-background:new    ;">
					<path class="st2" d="M174.89,137.28l-1.37-0.74c0.29-0.04,0.6-0.02,0.94,0.07l1.37,0.74
						C175.49,137.26,175.18,137.24,174.89,137.28"/>
					<path class="st3" d="M175.84,137.35l-1.37-0.74c0.27,0.07,0.56,0.18,0.86,0.33l1.37,0.74
						C176.39,137.53,176.11,137.42,175.84,137.35"/>
					<path class="st4" d="M176.69,137.68l-1.37-0.74c0.08,0.04,0.15,0.08,0.23,0.12l1.37,0.74
						C176.85,137.76,176.77,137.72,176.69,137.68"/>
				</g>
			</g>
			<g class="st0">
				<defs>
					<path id="SVGID_00000054242650091916814690000015824843580282472353_" class="st0" d="M168.74,234.62l-1.37-0.74
						c-4.9-3.3-9.85-9.73-14.83-19.27c-5.58-10.58-8.24-20.05-8-28.41c0.11-3.85,0.77-8.26,1.97-13.22
						c1.42-5.75,3.03-9.54,4.83-11.39l1.37,0.74c-1.81,1.84-3.41,5.64-4.83,11.39c-1.2,4.96-1.86,9.36-1.97,13.22
						c-0.24,8.36,2.43,17.83,8,28.41C158.89,224.89,163.84,231.32,168.74,234.62z"/>
				</defs>
				<clipPath id="SVGID_00000106135237040638493720000012465487832046246544_">
					<use xlink:href="#SVGID_00000054242650091916814690000015824843580282472353_"  style="overflow:visible;"/>
				</clipPath>
				<g style="clip-path:url(#SVGID_00000106135237040638493720000012465487832046246544_);enable-background:new    ;">
					<path class="st6" d="M168.74,234.62l-1.37-0.74c-4.9-3.3-9.85-9.73-14.83-19.27c-5.58-10.58-8.24-20.05-8-28.41
						c0.11-3.85,0.77-8.26,1.97-13.22c0.54-2.19,1.11-4.1,1.71-5.73l1.37,0.74c-0.6,1.62-1.17,3.53-1.71,5.73
						c-1.2,4.96-1.86,9.36-1.97,13.22c-0.24,8.36,2.43,17.83,8,28.41C158.89,224.89,163.84,231.32,168.74,234.62"/>
					<path class="st7" d="M149.59,168l-1.37-0.74c0.46-1.24,0.93-2.32,1.42-3.23l1.37,0.74C150.52,165.68,150.04,166.76,149.59,168"
						/>
					<path class="st8" d="M151.01,164.77l-1.37-0.74c0.27-0.51,0.55-0.97,0.84-1.37l1.37,0.74
						C151.56,163.8,151.28,164.26,151.01,164.77"/>
					<path class="st9" d="M151.84,163.4l-1.37-0.74c0.21-0.29,0.41-0.56,0.62-0.8l1.37,0.74
						C152.26,162.84,152.05,163.11,151.84,163.4"/>
					<path class="st10" d="M152.47,162.6l-1.37-0.74c0.08-0.09,0.17-0.18,0.25-0.27l1.37,0.74
						C152.63,162.42,152.55,162.51,152.47,162.6"/>
				</g>
			</g>
			<g class="st0">
				<defs>
					<path id="SVGID_00000075126061998622303510000013760027167529231767_" class="st0" d="M116,241.17l-1.37-0.74
						c-1.58-0.86-3.43-2.16-5.54-3.91c-4.43-3.65-6.94-6.98-7.54-10l1.37,0.74c0.6,3.02,3.11,6.35,7.54,10
						C112.58,239.01,114.42,240.31,116,241.17z"/>
				</defs>
				<clipPath id="SVGID_00000164484872020855989370000006059612145827144621_">
					<use xlink:href="#SVGID_00000075126061998622303510000013760027167529231767_"  style="overflow:visible;"/>
				</clipPath>
				<g style="clip-path:url(#SVGID_00000164484872020855989370000006059612145827144621_);enable-background:new    ;">
					<path class="st6" d="M116,241.17l-1.37-0.74c-1.58-0.86-3.43-2.16-5.54-3.91c-4.43-3.65-6.94-6.98-7.54-10l1.37,0.74
						c0.6,3.02,3.11,6.35,7.54,10C112.58,239.01,114.42,240.31,116,241.17"/>
				</g>
			</g>
			<g>
				<polygon class="st12" points="102.92,227.27 101.55,226.53 117.08,165.66 118.45,166.41 				"/>
			</g>
			<g class="st0">
				<defs>
					<path id="SVGID_00000124159037923356617420000005704040440943136699_" class="st0" d="M92.3,155.55l-1.37-0.74
						c4.27-0.47,9.79-1.02,16.56-1.64c8.15-0.67,13.51-1.15,16.08-1.43c1.85-0.2,3.68-0.43,5.47-0.68
						c17.29-2.43,31.9-7.2,43.83-14.29c0.2-0.12,0.41-0.2,0.65-0.23l1.37,0.74c-0.23,0.03-0.45,0.11-0.65,0.23
						c-11.93,7.09-26.54,11.86-43.83,14.29c-1.79,0.25-3.62,0.48-5.47,0.68c-2.57,0.28-7.93,0.76-16.08,1.43
						C102.09,154.53,96.57,155.08,92.3,155.55z"/>
				</defs>
				<clipPath id="SVGID_00000090275284376381673490000017057465955608483230_">
					<use xlink:href="#SVGID_00000124159037923356617420000005704040440943136699_"  style="overflow:visible;"/>
				</clipPath>
				<g style="clip-path:url(#SVGID_00000090275284376381673490000017057465955608483230_);enable-background:new    ;">
					<path class="st2" d="M92.3,155.55l-1.37-0.74c4.27-0.47,9.79-1.02,16.56-1.64c8.15-0.67,13.51-1.15,16.08-1.43
						c1.85-0.2,3.68-0.43,5.47-0.68c13.77-1.93,25.83-5.35,36.2-10.24l1.37,0.74c-10.37,4.89-22.44,8.31-36.2,10.24
						c-1.79,0.25-3.62,0.48-5.47,0.68c-2.57,0.28-7.93,0.76-16.08,1.43C102.09,154.53,96.57,155.08,92.3,155.55"/>
					<path class="st3" d="M166.62,141.55l-1.37-0.74c2.65-1.25,5.2-2.6,7.63-4.04c0.05-0.03,0.1-0.06,0.15-0.08l1.37,0.74
						c-0.05,0.02-0.1,0.05-0.15,0.08C171.82,138.95,169.27,140.3,166.62,141.55"/>
					<path class="st2" d="M174.4,137.43l-1.37-0.74c0.15-0.07,0.32-0.12,0.49-0.15l1.37,0.74
						C174.72,137.3,174.56,137.35,174.4,137.43"/>
				</g>
			</g>
			<g class="st0">
				<defs>
					<path id="SVGID_00000144327736583973316170000011835999739494177725_" class="st0" d="M88.11,172.68l-1.37-0.74
						c-2.68-1.46-3.97-3.57-3.89-6.34c0.06-2.1,1.11-4.36,3.15-6.79c2.04-2.43,3.68-3.76,4.94-4l1.37,0.74
						c-1.26,0.25-2.9,1.57-4.94,4c-2.05,2.43-3.09,4.69-3.15,6.79C84.13,169.11,85.43,171.22,88.11,172.68z"/>
				</defs>
				<clipPath id="SVGID_00000160177093169621823000000006115646908949128860_">
					<use xlink:href="#SVGID_00000144327736583973316170000011835999739494177725_"  style="overflow:visible;"/>
				</clipPath>
				<g style="clip-path:url(#SVGID_00000160177093169621823000000006115646908949128860_);enable-background:new    ;">
					<path class="st6" d="M88.11,172.68l-1.37-0.74c-2.68-1.46-3.97-3.57-3.89-6.34c0.02-0.8,0.19-1.63,0.5-2.48l1.37,0.74
						c-0.31,0.85-0.48,1.68-0.5,2.48C84.13,169.11,85.43,171.22,88.11,172.68"/>
					<path class="st7" d="M84.72,163.86l-1.37-0.74c0.17-0.47,0.39-0.94,0.64-1.42l1.37,0.74C85.1,162.92,84.89,163.4,84.72,163.86"
						/>
					<path class="st8" d="M85.36,162.44l-1.37-0.74c0.26-0.49,0.57-0.99,0.93-1.49l1.37,0.74
						C85.93,161.46,85.62,161.95,85.36,162.44"/>
					<path class="st9" d="M86.29,160.95l-1.37-0.74c0.32-0.46,0.68-0.92,1.08-1.4c0.19-0.23,0.37-0.44,0.56-0.65l1.37,0.74
						c-0.18,0.21-0.37,0.42-0.56,0.65C86.97,160.03,86.61,160.49,86.29,160.95"/>
					<path class="st10" d="M87.92,158.91l-1.37-0.74c0.6-0.68,1.17-1.26,1.7-1.74l1.37,0.74C89.09,157.64,88.52,158.22,87.92,158.91
						"/>
					<path class="st4" d="M89.62,157.17l-1.37-0.74c0.38-0.34,0.73-0.63,1.07-0.86l1.37,0.74C90.35,156.54,90,156.83,89.62,157.17"
						/>
					<path class="st3" d="M90.69,156.31l-1.37-0.74c0.29-0.2,0.58-0.37,0.84-0.49l1.37,0.74C91.27,155.94,90.99,156.1,90.69,156.31"
						/>
					<path class="st2" d="M91.54,155.81l-1.37-0.74c0.27-0.13,0.53-0.21,0.77-0.26l1.37,0.74C92.06,155.6,91.81,155.69,91.54,155.81
						"/>
				</g>
			</g>
			<g>
				<path class="st15" d="M174.89,137.28c1.88-0.26,4.98,2.27,9.27,7.59c4.05,4.97,6.99,9.32,8.82,13.06l-36.8,4.02
					c1.64,1.9,2.74,5.62,3.34,11.15c0.6,7.29,1.86,17.84,3.78,31.68c1.06,4.82,2.14,9.63,3.25,14.45
					c1.22,5.46,1.95,10.59,2.18,15.39c-4.9-3.3-9.85-9.73-14.83-19.27c-5.58-10.58-8.24-20.05-8-28.41
					c0.11-3.85,0.77-8.26,1.97-13.22c1.42-5.75,3.03-9.54,4.83-11.39l-24.75,2.71c-1.59,9.51-3.21,19.09-4.86,28.72
					c-1.97,11.87-3.02,21.33-3.16,28.38c0.81,2.33,2.29,5.24,4.44,8.75c2.33,3.7,3.9,6.66,4.72,8.88l-8.89,2.62
					c-2.07,0.22-5.32-1.48-9.75-5.14c-4.43-3.65-6.94-6.98-7.54-10l15.53-60.86c-2.19,0.35-5.34,1.8-9.41,4.34
					c-3.92,2.44-7,3.82-9.24,4.14c-3.15,0.35-6.11-0.05-9.14-1.14c-4.4-1.4-6.55-3.86-6.45-7.4c0.06-2.1,1.11-4.36,3.15-6.79
					c2.04-2.43,3.68-3.76,4.94-4c4.27-0.47,9.79-1.02,16.56-1.64c8.15-0.67,13.51-1.15,16.08-1.43c1.85-0.2,3.68-0.43,5.47-0.68
					c17.29-2.43,31.9-7.2,43.83-14.29C174.44,137.39,174.66,137.31,174.89,137.28z"/>
			</g>
		</g>
		<g class="st0">
			<g class="st0">
				<defs>
					<path id="SVGID_00000063613915268344243910000009640471852849167542_" class="st0" d="M157.61,97.34l1.37,0.74
						c2.16,1.18,3.24,2.7,3.24,4.57c-0.01,2.9-2.18,5.59-6.53,8.07l-1.37-0.74c4.35-2.49,6.52-5.18,6.53-8.07
						C160.86,100.04,159.78,98.52,157.61,97.34z"/>
				</defs>
				<clipPath id="SVGID_00000008837114696463807130000006122986846884427174_">
					<use xlink:href="#SVGID_00000063613915268344243910000009640471852849167542_"  style="overflow:visible;"/>
				</clipPath>
				<g style="clip-path:url(#SVGID_00000008837114696463807130000006122986846884427174_);enable-background:new    ;">
					<path class="st3" d="M155.69,110.73l-1.37-0.74c0.66-0.38,1.27-0.76,1.83-1.15l1.37,0.74
						C156.97,109.97,156.36,110.35,155.69,110.73"/>
					<path class="st4" d="M157.53,109.58l-1.37-0.74c0.65-0.45,1.24-0.91,1.75-1.37l1.37,0.74
						C158.77,108.67,158.18,109.13,157.53,109.58"/>
					<path class="st10" d="M159.28,108.2l-1.37-0.74c0.37-0.33,0.71-0.67,1.01-1.01l1.37,0.74
						C159.99,107.53,159.65,107.87,159.28,108.2"/>
					<path class="st9" d="M160.29,107.19l-1.37-0.74c0.25-0.28,0.47-0.56,0.67-0.85l1.37,0.74
						C160.76,106.63,160.54,106.91,160.29,107.19"/>
					<path class="st8" d="M160.96,106.34l-1.37-0.74c0.19-0.27,0.35-0.53,0.5-0.8l1.37,0.74
						C161.32,105.81,161.15,106.08,160.96,106.34"/>
					<path class="st7" d="M161.46,105.54l-1.37-0.74c0.16-0.29,0.29-0.58,0.4-0.88l1.37,0.74
						C161.75,104.96,161.62,105.25,161.46,105.54"/>
					<path class="st6" d="M161.86,104.66l-1.37-0.74c0.24-0.66,0.36-1.33,0.36-2.01c0-1.87-1.08-3.39-3.24-4.57l1.37,0.74
						c2.16,1.18,3.24,2.7,3.24,4.57C162.22,103.33,162.1,104,161.86,104.66"/>
				</g>
			</g>
			<g class="st0">
				<defs>
					<path id="SVGID_00000127043190150075879170000016643085620075180929_" class="st0" d="M159.07,91.31l1.37,0.74
						c-3.32-1.81-8.48-3.75-15.47-5.84l-1.37-0.74C150.59,87.55,155.75,89.5,159.07,91.31z"/>
				</defs>
				<clipPath id="SVGID_00000156562474855369457890000013168048453126234267_">
					<use xlink:href="#SVGID_00000127043190150075879170000016643085620075180929_"  style="overflow:visible;"/>
				</clipPath>
				<g style="clip-path:url(#SVGID_00000156562474855369457890000013168048453126234267_);enable-background:new    ;">
					<path class="st3" d="M144.97,86.21l-1.37-0.74c6.2,1.85,10.95,3.59,14.26,5.22l1.37,0.74
						C155.92,89.8,151.16,88.06,144.97,86.21"/>
					<path class="st4" d="M159.23,91.43l-1.37-0.74c0.43,0.21,0.83,0.42,1.21,0.62l1.37,0.74
						C160.06,91.85,159.66,91.64,159.23,91.43"/>
				</g>
			</g>
			<g class="st0">
				<defs>
					<path id="SVGID_00000005981293567298193580000013643239960790203522_" class="st0" d="M118.71,113.66l-1.37-0.74
						c1.26,0.68,2.88,1.25,4.86,1.7c4.99,1.1,10.57,1.22,16.76,0.35c5.9-0.83,11.01-2.49,15.36-4.98l1.37,0.74
						c-4.35,2.49-9.47,4.15-15.36,4.98c-6.19,0.87-11.77,0.75-16.76-0.35C121.59,114.91,119.97,114.34,118.71,113.66z"/>
				</defs>
				<clipPath id="SVGID_00000053528777779687998920000013292378033928373385_">
					<use xlink:href="#SVGID_00000005981293567298193580000013643239960790203522_"  style="overflow:visible;"/>
				</clipPath>
				<g style="clip-path:url(#SVGID_00000053528777779687998920000013292378033928373385_);enable-background:new    ;">
					<path class="st4" d="M118.71,113.66l-1.37-0.74c0.14,0.08,0.29,0.15,0.44,0.23l1.37,0.74
						C119,113.81,118.85,113.73,118.71,113.66"/>
					<path class="st3" d="M119.15,113.88l-1.37-0.74c0.98,0.48,2.15,0.9,3.52,1.25l1.37,0.74
						C121.3,114.78,120.13,114.36,119.15,113.88"/>
					<path class="st2" d="M122.67,115.14l-1.37-0.74c0.29,0.08,0.59,0.15,0.9,0.22c4.99,1.1,10.57,1.22,16.76,0.35
						c4.81-0.68,9.11-1.91,12.89-3.69l1.37,0.74c-3.78,1.78-8.07,3.01-12.89,3.69c-6.19,0.87-11.77,0.75-16.76-0.35
						C123.26,115.28,122.96,115.21,122.67,115.14"/>
					<path class="st3" d="M153.22,112.01l-1.37-0.74c0.85-0.4,1.67-0.83,2.47-1.29l1.37,0.74
						C154.9,111.18,154.07,111.61,153.22,112.01"/>
				</g>
			</g>
			<g class="st0">
				<defs>
					<path id="SVGID_00000069357841565528445230000015539044093560446369_" class="st0" d="M141.18,78.09l1.37,0.74
						c-1.49-0.81-3.12-1.09-4.91-0.84l-1.37-0.74C138.06,77,139.69,77.28,141.18,78.09z"/>
				</defs>
				<clipPath id="SVGID_00000076599034777050430580000016001282863219490999_">
					<use xlink:href="#SVGID_00000069357841565528445230000015539044093560446369_"  style="overflow:visible;"/>
				</clipPath>
				<g style="clip-path:url(#SVGID_00000076599034777050430580000016001282863219490999_);enable-background:new    ;">
					<path class="st2" d="M137.64,77.99l-1.37-0.74c1.12-0.16,2.18-0.11,3.18,0.15l1.37,0.74
						C139.82,77.88,138.76,77.83,137.64,77.99"/>
					<path class="st3" d="M140.82,78.14l-1.37-0.74c0.49,0.13,0.97,0.31,1.44,0.54l1.37,0.74
						C141.79,78.45,141.31,78.27,140.82,78.14"/>
					<path class="st4" d="M142.26,78.68l-1.37-0.74c0.1,0.05,0.19,0.1,0.29,0.15l1.37,0.74C142.45,78.78,142.36,78.73,142.26,78.68"
						/>
				</g>
			</g>
			<g>
				<polygon class="st20" points="133.97,78.51 132.6,77.76 136.27,77.25 137.64,77.99 				"/>
			</g>
			<g class="st0">
				<defs>
					<path id="SVGID_00000026126516132553024030000001103071044903171774_" class="st0" d="M135.74,85.58l-1.37-0.74
						c-0.62-1.34-1.22-3.69-1.77-7.07l1.37,0.74C134.53,81.89,135.12,84.24,135.74,85.58z"/>
				</defs>
				<clipPath id="SVGID_00000130608487296343186080000005546787977694777229_">
					<use xlink:href="#SVGID_00000026126516132553024030000001103071044903171774_"  style="overflow:visible;"/>
				</clipPath>
				<g style="clip-path:url(#SVGID_00000130608487296343186080000005546787977694777229_);enable-background:new    ;">
					<path class="st6" d="M135.74,85.58l-1.37-0.74c-0.62-1.34-1.22-3.69-1.77-7.07l1.37,0.74
						C134.53,81.89,135.12,84.24,135.74,85.58"/>
				</g>
			</g>
			<g>
				<path class="st15" d="M162.93,93.64c5.08,3.82,7.61,9.8,7.59,17.93c-0.02,8.53-3.67,15.72-10.96,21.55
					c-6.16,5-13.44,8.09-21.86,9.27c-8.6,1.21-15.82-0.18-21.64-4.18c-6.4-4.38-9.58-11.07-9.56-20.08
					c0.01-7.45,2.12-13.58,6.34-18.37c2.83-3.17,7.15-6.12,12.96-8.83c5.81-2.71,9.12-4.5,9.94-5.36c-0.62-1.34-1.22-3.69-1.77-7.07
					l3.67-0.52c2.01-0.28,3.83,0.11,5.46,1.17c1.63,1.06,2.45,2.5,2.44,4.32c0,0.88-0.2,1.79-0.57,2.73
					C154.06,88.92,160.05,91.4,162.93,93.64z M155.69,110.73c4.35-2.49,6.52-5.18,6.53-8.07c0.01-2.85-2.52-4.9-7.58-6.14
					c-4.67-1.15-10-1.3-15.97-0.46c-6.11,0.86-11.4,2.43-15.87,4.71c-4.91,2.57-7.37,5.31-7.37,8.25c-0.01,3.01,2.71,5.12,8.14,6.35
					c4.99,1.1,10.57,1.22,16.76,0.35C146.23,114.88,151.34,113.21,155.69,110.73"/>
			</g>
			<g class="st0">
				<defs>
					<path id="SVGID_00000133501980186589060700000003182880359858572465_" class="st0" d="M118.29,139.57l-1.37-0.74
						c-0.76-0.41-1.5-0.87-2.22-1.36c-6.4-4.38-9.58-11.07-9.56-20.08c0.01-7.45,2.12-13.58,6.34-18.37
						c2.83-3.17,7.15-6.12,12.96-8.83c5.81-2.71,9.12-4.5,9.94-5.36l1.37,0.74c-0.82,0.86-4.13,2.65-9.94,5.36
						c-5.81,2.71-10.13,5.66-12.96,8.83c-4.21,4.79-6.32,10.92-6.34,18.37c-0.02,9.01,3.17,15.7,9.56,20.08
						C116.79,138.71,117.53,139.16,118.29,139.57z"/>
				</defs>
				<clipPath id="SVGID_00000183951820068273122690000018051150305101355148_">
					<use xlink:href="#SVGID_00000133501980186589060700000003182880359858572465_"  style="overflow:visible;"/>
				</clipPath>
				<g style="clip-path:url(#SVGID_00000183951820068273122690000018051150305101355148_);enable-background:new    ;">
					<path class="st6" d="M118.29,139.57l-1.37-0.74c-0.76-0.41-1.5-0.87-2.22-1.36c-6.4-4.38-9.58-11.07-9.56-20.08
						c0.01-3.92,0.6-7.48,1.76-10.66l1.37,0.74c-1.17,3.19-1.76,6.74-1.76,10.66c-0.02,9.01,3.17,15.7,9.56,20.08
						C116.79,138.71,117.53,139.16,118.29,139.57"/>
					<path class="st7" d="M108.27,107.47l-1.37-0.74c0.41-1.11,0.89-2.18,1.44-3.2l1.37,0.74
						C109.16,105.29,108.68,106.36,108.27,107.47"/>
					<path class="st8" d="M109.71,104.27l-1.37-0.74c0.45-0.83,0.95-1.64,1.49-2.41l1.37,0.74
						C110.65,102.63,110.16,103.44,109.71,104.27"/>
					<path class="st9" d="M111.2,101.86l-1.37-0.74c0.51-0.72,1.06-1.42,1.65-2.09c0.01-0.01,0.02-0.02,0.03-0.03l1.37,0.74
						c-0.01,0.01-0.02,0.02-0.03,0.03C112.26,100.44,111.71,101.13,111.2,101.86"/>
					<path class="st10" d="M112.87,99.74l-1.37-0.74c0.56-0.62,1.17-1.24,1.85-1.84l1.37,0.74
						C114.05,98.5,113.43,99.11,112.87,99.74"/>
					<path class="st4" d="M114.72,97.89l-1.37-0.74c0.97-0.88,2.06-1.73,3.28-2.57l1.37,0.74
						C116.78,96.16,115.69,97.02,114.72,97.89"/>
					<path class="st3" d="M117.99,95.32l-1.37-0.74c2.14-1.48,4.65-2.9,7.53-4.26l1.37,0.74C122.64,92.42,120.13,93.84,117.99,95.32
						"/>
					<path class="st2" d="M125.52,91.06l-1.37-0.74c0.09-0.04,0.19-0.09,0.28-0.13c0.35-0.16,0.69-0.32,1.02-0.48l1.37,0.74
						c-0.33,0.16-0.67,0.32-1.02,0.48C125.71,90.98,125.62,91.02,125.52,91.06"/>
					<path class="st3" d="M126.83,90.45l-1.37-0.74c4.16-1.96,6.89-3.4,8.21-4.3l1.37,0.74C133.72,87.06,130.99,88.49,126.83,90.45"
						/>
					<path class="st4" d="M135.03,86.15l-1.37-0.74c0.24-0.17,0.43-0.31,0.58-0.44l1.37,0.74
						C135.47,85.84,135.27,85.98,135.03,86.15"/>
					<path class="st10" d="M135.61,85.7l-1.37-0.74c0.05-0.04,0.09-0.09,0.13-0.13l1.37,0.74C135.71,85.62,135.66,85.66,135.61,85.7
						"/>
				</g>
			</g>
		</g>
		<g class="st0">
			<g class="st0">
				<defs>
					<path id="SVGID_00000161624402289971398010000000585231561706236057_" class="st0" d="M177.12,53.8l1.37,0.74
						c-0.25-0.13-0.48-0.24-0.71-0.33l-1.37-0.74C176.64,53.56,176.87,53.67,177.12,53.8z"/>
				</defs>
				<clipPath id="SVGID_00000030473397561709174530000006997046056463577272_">
					<use xlink:href="#SVGID_00000161624402289971398010000000585231561706236057_"  style="overflow:visible;"/>
				</clipPath>
				<g style="clip-path:url(#SVGID_00000030473397561709174530000006997046056463577272_);enable-background:new    ;">
					<path class="st3" d="M177.78,54.21l-1.37-0.74c0.14,0.06,0.29,0.12,0.45,0.2l1.37,0.74C178.08,54.34,177.93,54.27,177.78,54.21
						"/>
					<path class="st4" d="M178.23,54.41l-1.37-0.74c0.08,0.04,0.17,0.09,0.26,0.13l1.37,0.74C178.4,54.5,178.31,54.45,178.23,54.41"
						/>
				</g>
			</g>
			<g class="st0">
				<defs>
					<path id="SVGID_00000157287162226049322970000005462422157796528025_" class="st0" d="M151.93,61.81l-1.37-0.74
						c2.14-0.3,5.24-1.58,9.33-3.85c4.08-2.27,7.31-3.57,9.7-3.9c3.14-0.44,5.41-0.39,6.82,0.16l1.37,0.74
						c-1.41-0.55-3.68-0.6-6.82-0.16c-2.39,0.34-5.62,1.64-9.7,3.9C157.17,60.23,154.07,61.51,151.93,61.81z"/>
				</defs>
				<clipPath id="SVGID_00000070115319175868420600000012863926976843571382_">
					<use xlink:href="#SVGID_00000157287162226049322970000005462422157796528025_"  style="overflow:visible;"/>
				</clipPath>
				<g style="clip-path:url(#SVGID_00000070115319175868420600000012863926976843571382_);enable-background:new    ;">
					<path class="st2" d="M151.93,61.81l-1.37-0.74c1.44-0.2,3.32-0.85,5.64-1.95l1.37,0.74C155.25,60.96,153.37,61.61,151.93,61.81
						"/>
					<path class="st3" d="M157.58,59.87l-1.37-0.74c1.12-0.53,2.35-1.17,3.69-1.91c1.24-0.69,2.4-1.29,3.48-1.8l1.37,0.74
						c-1.08,0.51-2.24,1.11-3.48,1.8C159.93,58.7,158.7,59.34,157.58,59.87"/>
					<path class="st2" d="M164.74,56.17l-1.37-0.74c2.48-1.17,4.56-1.87,6.22-2.11c2.74-0.39,4.83-0.39,6.25-0.03l1.37,0.74
						c-1.42-0.37-3.5-0.36-6.25,0.03C169.3,54.29,167.22,54.99,164.74,56.17"/>
					<path class="st3" d="M177.21,54.03l-1.37-0.74c0.21,0.05,0.4,0.11,0.57,0.18l1.37,0.74C177.6,54.15,177.41,54.08,177.21,54.03"
						/>
				</g>
			</g>
			<g>
				<path class="st15" d="M177.78,54.21c1.42,0.55,3.25,2.02,5.5,4.41c-1.38,2.02-2.51,3.53-3.4,4.54
					c-1.77,2.01-8.73,3.86-20.9,5.57c-1.32,0.19-3.39,0.48-6.22,0.87c-2.88,0.41-5.05,0.71-6.5,0.91c-18.2,2.56-29.41,5.7-33.62,9.4
					c-7.4,1.04-14.43-2.17-21.06-9.63l60.34-8.48c2.14-0.3,5.24-1.58,9.33-3.85c4.08-2.27,7.31-3.57,9.7-3.9
					C174.1,53.62,176.37,53.67,177.78,54.21z"/>
			</g>
			<g class="st0">
				<defs>
					<path id="SVGID_00000146471561668414508240000011196098917763170745_" class="st0" d="M100.4,77.58l-1.37-0.74
						c-3.01-1.64-5.95-4.07-8.81-7.29l1.37,0.74C94.45,73.52,97.39,75.95,100.4,77.58z"/>
				</defs>
				<clipPath id="SVGID_00000116945812520287351830000008174213671024182965_">
					<use xlink:href="#SVGID_00000146471561668414508240000011196098917763170745_"  style="overflow:visible;"/>
				</clipPath>
				<g style="clip-path:url(#SVGID_00000116945812520287351830000008174213671024182965_);enable-background:new    ;">
					<path class="st6" d="M100.4,77.58l-1.37-0.74c-3.01-1.64-5.95-4.07-8.81-7.29l1.37,0.74C94.45,73.52,97.39,75.95,100.4,77.58"
						/>
				</g>
			</g>
			<g>
				<polygon class="st20" points="91.59,70.3 90.22,69.55 150.57,61.07 151.93,61.81 				"/>
			</g>
		</g>
		<g class="st0">
			<g class="st0">
				<defs>
					<path id="SVGID_00000181084589498374104620000012514530641419676589_" class="st0" d="M155.81,37.3l1.37,0.74
						c-1.81-0.99-3.17-1.41-4.06-1.29l-1.37-0.74C152.64,35.89,153.99,36.31,155.81,37.3z"/>
				</defs>
				<clipPath id="SVGID_00000090293933868048666970000012511497232033446536_">
					<use xlink:href="#SVGID_00000181084589498374104620000012514530641419676589_"  style="overflow:visible;"/>
				</clipPath>
				<g style="clip-path:url(#SVGID_00000090293933868048666970000012511497232033446536_);enable-background:new    ;">
					<path class="st2" d="M153.11,36.76l-1.37-0.74c0.37-0.05,0.82-0.01,1.35,0.13l1.37,0.74C153.93,36.75,153.48,36.7,153.11,36.76
						"/>
					<path class="st3" d="M154.46,36.88l-1.37-0.74c0.57,0.15,1.23,0.41,1.98,0.78l1.37,0.74
						C155.69,37.29,155.03,37.03,154.46,36.88"/>
					<path class="st4" d="M156.44,37.66l-1.37-0.74c0.24,0.12,0.48,0.24,0.73,0.38l1.37,0.74C156.92,37.9,156.67,37.78,156.44,37.66
						"/>
				</g>
			</g>
			<g>
				<polygon class="st20" points="136.26,39.12 134.9,38.38 151.74,36.01 153.11,36.76 				"/>
			</g>
			<g class="st0">
				<defs>
					<path id="SVGID_00000166661960275817674460000001019321979005609918_" class="st0" d="M123.47,49.42l-1.37-0.74
						c-3.72-2.02-6.36-5.23-7.92-9.61l1.37,0.74C117.12,44.19,119.76,47.39,123.47,49.42z"/>
				</defs>
				<clipPath id="SVGID_00000088840511498747793030000010627648333128017295_">
					<use xlink:href="#SVGID_00000166661960275817674460000001019321979005609918_"  style="overflow:visible;"/>
				</clipPath>
				<g style="clip-path:url(#SVGID_00000088840511498747793030000010627648333128017295_);enable-background:new    ;">
					<path class="st6" d="M123.47,49.42l-1.37-0.74c-3.72-2.02-6.36-5.23-7.92-9.61l1.37,0.74
						C117.12,44.19,119.76,47.39,123.47,49.42"/>
				</g>
			</g>
			<g>
				<path class="st15" d="M142.17,51.5c-14.25,2-23.12-1.89-26.61-11.7c2.51-0.35,5.96-0.5,10.36-0.44c4.76,0.08,8.22,0,10.36-0.24
					l16.85-2.37c1.01-0.14,2.59,0.41,4.75,1.67c2.16,1.25,3.24,2.39,3.24,3.4C161.09,46.51,154.78,49.73,142.17,51.5z"/>
			</g>
			<g class="st0">
				<defs>
					<path id="SVGID_00000156581522253487124060000002971496328818347421_" class="st0" d="M115.55,39.8l-1.37-0.74
						c2.51-0.35,5.96-0.5,10.36-0.44c4.76,0.08,8.22,0,10.36-0.24l1.37,0.74c-2.14,0.24-5.59,0.32-10.36,0.24
						C121.51,39.3,118.06,39.45,115.55,39.8z"/>
				</defs>
				<clipPath id="SVGID_00000158001156627555416900000004806559172488368044_">
					<use xlink:href="#SVGID_00000156581522253487124060000002971496328818347421_"  style="overflow:visible;"/>
				</clipPath>
				<g style="clip-path:url(#SVGID_00000158001156627555416900000004806559172488368044_);enable-background:new    ;">
					<path class="st2" d="M115.55,39.8l-1.37-0.74c2.51-0.35,5.96-0.5,10.36-0.44c4.76,0.08,8.22,0,10.36-0.24l1.37,0.74
						c-2.14,0.24-5.59,0.32-10.36,0.24C121.51,39.3,118.06,39.45,115.55,39.8"/>
				</g>
			</g>
		</g>
	</g>
</g>
</svg>
