<?xml version="1.0" encoding="utf-8"?>
<!-- Generator: Adobe Illustrator 26.2.1, SVG Export Plug-In . SVG Version: 6.00 Build 0)  -->
<svg version="1.1" id="Calque_1" xmlns="http://www.w3.org/2000/svg" xmlns:xlink="http://www.w3.org/1999/xlink" x="0px" y="0px"
	 viewBox="0 0 280 280" style="enable-background:new 0 0 280 280;" xml:space="preserve">
<style type="text/css">
	.st0{enable-background:new    ;}
	.st1{clip-path:url(#SVGID_00000150084492230348884730000008902310402357531543_);enable-background:new    ;}
	.st2{fill:#A85C00;}
	.st3{fill:#A35900;}
	.st4{fill:#9E5600;}
	.st5{clip-path:url(#SVGID_00000103948618479427418030000012505697584711072134_);enable-background:new    ;}
	.st6{fill:#B46200;}
	.st7{clip-path:url(#SVGID_00000013187102034669638610000009223474376153576353_);enable-background:new    ;}
	.st8{fill:#854800;}
	.st9{fill:#DF7900;}
	.st10{fill:#824700;}
	.st11{clip-path:url(#SVGID_00000072990496833799400090000016481126782023287743_);enable-background:new    ;}
	.st12{clip-path:url(#SVGID_00000163035412399351328580000011750489094090538431_);enable-background:new    ;}
	.st13{fill:#8A4B00;}
	.st14{fill:#8F4E00;}
	.st15{fill:#945100;}
	.st16{fill:#995300;}
	.st17{clip-path:url(#SVGID_00000036217654993936546130000007918266191612972971_);enable-background:new    ;}
	.st18{clip-path:url(#SVGID_00000176763362895422614030000001487740878073818768_);enable-background:new    ;}
	.st19{fill:#914F00;}
	.st20{clip-path:url(#SVGID_00000060742074537847661700000017597158706594160317_);enable-background:new    ;}
	.st21{clip-path:url(#SVGID_00000060003499624900159120000004819724922711850938_);enable-background:new    ;}
	.st22{clip-path:url(#SVGID_00000075866970594931589720000002083012309847713683_);enable-background:new    ;}
	.st23{clip-path:url(#SVGID_00000154402058296089854550000012197654648786573747_);enable-background:new    ;}
	.st24{clip-path:url(#SVGID_00000169541978101879706250000014121182646496860861_);enable-background:new    ;}
	.st25{clip-path:url(#SVGID_00000056389819387006580670000013666130682300917381_);enable-background:new    ;}
	.st26{clip-path:url(#SVGID_00000128469589821645939980000007281023590463083921_);enable-background:new    ;}
	.st27{clip-path:url(#SVGID_00000007402490723477424480000010508618546342221230_);enable-background:new    ;}
	.st28{clip-path:url(#SVGID_00000121984033894230022960000013681459864667651502_);enable-background:new    ;}
	.st29{clip-path:url(#SVGID_00000070106376812706173480000016511773662616726928_);enable-background:new    ;}
	.st30{clip-path:url(#SVGID_00000156549305064050186020000012485435890883222157_);enable-background:new    ;}
	.st31{clip-path:url(#SVGID_00000000902021327525130120000015587939384573905811_);enable-background:new    ;}
	.st32{clip-path:url(#SVGID_00000062902226434334335740000010681889247826049703_);enable-background:new    ;}
	.st33{clip-path:url(#SVGID_00000047739060408978741280000000045234488106933643_);enable-background:new    ;}
	.st34{clip-path:url(#SVGID_00000023238701291593078760000015120306650192238741_);enable-background:new    ;}
	.st35{clip-path:url(#SVGID_00000114065554615704087130000009259438424340480164_);enable-background:new    ;}
</style>
<g>
	<g>
		<g class="st0">
			<g class="st0">
				<defs>
					<path id="SVGID_1_" class="st0" d="M198.11,216.01l1.37,0.74c-2.99-1.63-8.11-1.93-15.35-0.91l-1.37-0.74
						C190,214.08,195.11,214.38,198.11,216.01z"/>
				</defs>
				<clipPath id="SVGID_00000025405913270685230180000013515898010066718398_">
					<use xlink:href="#SVGID_1_"  style="overflow:visible;"/>
				</clipPath>
				<g style="clip-path:url(#SVGID_00000025405913270685230180000013515898010066718398_);enable-background:new    ;">
					<path class="st2" d="M184.12,215.84l-1.37-0.74c5.6-0.79,9.93-0.78,12.98,0.01l1.37,0.74
						C194.05,215.05,189.72,215.05,184.12,215.84"/>
					<path class="st3" d="M197.1,215.85l-1.37-0.74c0.76,0.2,1.44,0.44,2.05,0.74l1.37,0.74
						C198.55,216.29,197.87,216.05,197.1,215.85"/>
					<path class="st4" d="M199.15,216.59l-1.37-0.74c0.11,0.05,0.22,0.11,0.32,0.17l1.37,0.74
						C199.37,216.7,199.26,216.64,199.15,216.59"/>
				</g>
			</g>
			<g class="st0">
				<defs>
					<path id="SVGID_00000090271728180738186830000015622546916564906685_" class="st0" d="M164.06,224.95l-1.37-0.74
						c2.95-0.41,6.76-2,11.44-4.75c4.68-2.76,7.55-4.21,8.62-4.36l1.37,0.74c-1.07,0.15-3.94,1.6-8.62,4.36
						C170.82,222.95,167.01,224.54,164.06,224.95z"/>
				</defs>
				<clipPath id="SVGID_00000036964287636138514130000005997455939911965082_">
					<use xlink:href="#SVGID_00000090271728180738186830000015622546916564906685_"  style="overflow:visible;"/>
				</clipPath>
				<g style="clip-path:url(#SVGID_00000036964287636138514130000005997455939911965082_);enable-background:new    ;">
					<path class="st2" d="M164.06,224.95l-1.37-0.74c1.89-0.27,4.13-1.01,6.74-2.24l1.37,0.74
						C168.19,223.94,165.95,224.68,164.06,224.95"/>
					<path class="st3" d="M170.79,222.71l-1.37-0.74c1.46-0.69,3.03-1.53,4.71-2.52c2.84-1.68,5.02-2.87,6.53-3.58l1.37,0.74
						c-1.51,0.71-3.68,1.9-6.53,3.58C173.82,221.19,172.25,222.02,170.79,222.71"/>
					<path class="st2" d="M182.03,216.62l-1.37-0.74c0.98-0.46,1.67-0.72,2.09-0.78l1.37,0.74
						C183.7,215.9,183.01,216.16,182.03,216.62"/>
				</g>
			</g>
			<g>
				<polygon class="st6" points="112.38,231.81 111.01,231.06 162.69,224.21 164.06,224.95 				"/>
			</g>
			<g class="st0">
				<defs>
					<path id="SVGID_00000181046544241880423630000016142430478088022144_" class="st0" d="M100.32,240l-1.37-0.74
						c-1.55-0.84-3.22-1.79-5-2.85l1.37,0.74C97.11,238.2,98.77,239.15,100.32,240z"/>
				</defs>
				<clipPath id="SVGID_00000023973745363960527960000002722584977835346615_">
					<use xlink:href="#SVGID_00000181046544241880423630000016142430478088022144_"  style="overflow:visible;"/>
				</clipPath>
				<g style="clip-path:url(#SVGID_00000023973745363960527960000002722584977835346615_);enable-background:new    ;">
					<path class="st8" d="M100.32,240l-1.37-0.74c-1.55-0.84-3.22-1.79-5-2.85l1.37,0.74C97.11,238.2,98.77,239.15,100.32,240"/>
				</g>
			</g>
			<g>
				<path class="st9" d="M184.12,215.84c11.17-1.57,17.29,0.01,18.35,4.73c-1.2,3.89-5.38,6.64-12.53,8.26
					c-5.27,0.74-10.54,1.48-15.81,2.22l-35.03,6.44c-4.65,0.65-11.3,2.2-19.96,4.64c-0.38,0.19-1.23,0.75-2.55,1.68
					c-1.07,0.69-1.94,1.09-2.64,1.18c-2.88,0.41-9.09-2.21-18.62-7.85l0.01-4.77c1.95-0.27,4.81-0.37,8.62-0.3
					c3.8,0.08,6.6-0.01,8.43-0.27l51.68-6.86c2.95-0.41,6.76-2,11.44-4.75C180.18,217.44,183.05,215.99,184.12,215.84z"/>
			</g>
			<g>
				<polygon class="st10" points="95.32,237.15 93.96,236.41 93.97,231.63 95.33,232.38 				"/>
			</g>
			<g class="st0">
				<defs>
					<path id="SVGID_00000054252349326034311270000012974434604814169777_" class="st0" d="M95.33,232.38l-1.37-0.74
						c1.95-0.27,4.81-0.37,8.62-0.3c3.8,0.08,6.6-0.01,8.43-0.27l1.37,0.74c-1.83,0.26-4.63,0.35-8.43,0.27
						C100.15,232,97.28,232.1,95.33,232.38z"/>
				</defs>
				<clipPath id="SVGID_00000175290555666445172170000010126937176185434278_">
					<use xlink:href="#SVGID_00000054252349326034311270000012974434604814169777_"  style="overflow:visible;"/>
				</clipPath>
				<g style="clip-path:url(#SVGID_00000175290555666445172170000010126937176185434278_);enable-background:new    ;">
					<path class="st2" d="M95.33,232.38l-1.37-0.74c1.95-0.27,4.81-0.37,8.62-0.3c3.8,0.08,6.6-0.01,8.43-0.27l1.37,0.74
						c-1.83,0.26-4.63,0.35-8.43,0.27C100.15,232,97.28,232.1,95.33,232.38"/>
				</g>
			</g>
		</g>
		<g class="st0">
			<g class="st0">
				<defs>
					<path id="SVGID_00000140011008851888770550000013162139774396947587_" class="st0" d="M171.62,214.49l-1.37-0.74
						c-3.82-2.08-7.69-5.29-11.6-9.63c-5.7-6.26-8.47-11.96-8.33-17.1c0.07-2.37,0.67-5.1,1.83-8.19c1.36-3.59,2.93-5.99,4.71-7.2
						l1.37,0.74c-1.79,1.21-3.35,3.61-4.71,7.2c-1.15,3.09-1.76,5.82-1.83,8.19c-0.15,5.14,2.63,10.84,8.33,17.1
						C163.93,209.19,167.8,212.4,171.62,214.49z"/>
				</defs>
				<clipPath id="SVGID_00000010988923447778847310000009701608814626328709_">
					<use xlink:href="#SVGID_00000140011008851888770550000013162139774396947587_"  style="overflow:visible;"/>
				</clipPath>
				<g style="clip-path:url(#SVGID_00000010988923447778847310000009701608814626328709_);enable-background:new    ;">
					<path class="st8" d="M171.62,214.49l-1.37-0.74c-3.82-2.08-7.69-5.29-11.6-9.63c-5.7-6.26-8.47-11.96-8.33-17.1
						c0.07-2.33,0.65-5.01,1.77-8.04l1.37,0.74c-1.11,3.03-1.7,5.71-1.77,8.04c-0.15,5.14,2.63,10.84,8.33,17.1
						C163.93,209.19,167.8,212.4,171.62,214.49"/>
					<path class="st13" d="M153.46,179.72l-1.37-0.74c0.02-0.05,0.04-0.1,0.06-0.16c0.46-1.2,0.94-2.27,1.44-3.21l1.37,0.74
						c-0.5,0.94-0.98,2.01-1.44,3.21C153.5,179.62,153.48,179.67,153.46,179.72"/>
					<path class="st14" d="M154.96,176.35l-1.37-0.74c0.33-0.61,0.66-1.16,1.01-1.65l1.37,0.74
						C155.62,175.19,155.28,175.75,154.96,176.35"/>
					<path class="st15" d="M155.97,174.7l-1.37-0.74c0.26-0.37,0.52-0.71,0.8-1.01l1.37,0.74
						C156.49,173.99,156.23,174.33,155.97,174.7"/>
					<path class="st16" d="M156.76,173.68l-1.37-0.74c0.23-0.26,0.47-0.5,0.71-0.72l1.37,0.74
						C157.23,173.18,156.99,173.42,156.76,173.68"/>
					<path class="st4" d="M157.47,172.96l-1.37-0.74c0.23-0.21,0.47-0.4,0.71-0.56l1.37,0.74
						C157.94,172.57,157.7,172.76,157.47,172.96"/>
					<path class="st3" d="M158.18,172.4l-1.37-0.74c0.02-0.01,0.03-0.02,0.05-0.04l1.37,0.74
						C158.21,172.38,158.19,172.39,158.18,172.4"/>
				</g>
			</g>
			<g class="st0">
				<defs>
					<path id="SVGID_00000033364185925155997810000012425564118859497132_" class="st0" d="M194.71,136.93l1.37,0.74
						c-2.99-1.63-8.11-1.93-15.35-0.92c-1.07,0.15-3.94,1.61-8.63,4.37c-4.67,2.76-8.49,4.34-11.44,4.75l-1.37-0.74
						c2.96-0.42,6.77-2,11.44-4.75c4.68-2.76,7.56-4.22,8.63-4.37C186.6,135,191.72,135.3,194.71,136.93z"/>
				</defs>
				<clipPath id="SVGID_00000029738311403850660600000004261132457134522759_">
					<use xlink:href="#SVGID_00000033364185925155997810000012425564118859497132_"  style="overflow:visible;"/>
				</clipPath>
				<g style="clip-path:url(#SVGID_00000029738311403850660600000004261132457134522759_);enable-background:new    ;">
					<path class="st2" d="M160.66,145.88l-1.37-0.74c1.89-0.27,4.14-1.01,6.74-2.24l1.37,0.74
						C164.8,144.87,162.55,145.61,160.66,145.88"/>
					<path class="st3" d="M167.39,143.64l-1.37-0.74c1.46-0.69,3.03-1.53,4.71-2.52c2.86-1.68,5.04-2.88,6.55-3.6l1.37,0.74
						c-1.51,0.71-3.7,1.91-6.55,3.6C170.42,142.12,168.85,142.96,167.39,143.64"/>
					<path class="st2" d="M178.66,137.53l-1.37-0.74c0.96-0.46,1.66-0.71,2.07-0.77c5.59-0.79,9.92-0.78,12.98,0.01l1.37,0.74
						c-3.06-0.79-7.39-0.8-12.98-0.01C180.31,136.82,179.62,137.07,178.66,137.53"/>
					<path class="st3" d="M193.71,136.77l-1.37-0.74c0.76,0.2,1.45,0.44,2.05,0.74l1.37,0.74
						C195.15,137.21,194.47,136.97,193.71,136.77"/>
					<path class="st4" d="M195.76,137.51l-1.37-0.74c0.11,0.05,0.22,0.11,0.32,0.17l1.37,0.74
						C195.97,137.62,195.87,137.56,195.76,137.51"/>
				</g>
			</g>
			<g class="st0">
				<defs>
					<path id="SVGID_00000142148789078186815180000000260444084932211072_" class="st0" d="M114.25,218.9l-1.37-0.74
						c-2.93-1.6-4.65-3.12-5.16-4.58l1.37,0.74C109.6,215.78,111.32,217.3,114.25,218.9z"/>
				</defs>
				<clipPath id="SVGID_00000065773005532263363580000012429507160009867396_">
					<use xlink:href="#SVGID_00000142148789078186815180000000260444084932211072_"  style="overflow:visible;"/>
				</clipPath>
				<g style="clip-path:url(#SVGID_00000065773005532263363580000012429507160009867396_);enable-background:new    ;">
					<path class="st8" d="M114.25,218.9l-1.37-0.74c-2.93-1.6-4.65-3.12-5.16-4.58l1.37,0.74
						C109.6,215.78,111.32,217.3,114.25,218.9"/>
				</g>
			</g>
			<g>
				<polygon class="st19" points="109.09,214.32 107.73,213.58 122.6,175.57 123.97,176.31 				"/>
			</g>
			<g>
				<polygon class="st6" points="108.97,152.74 107.61,151.99 159.29,145.14 160.66,145.88 				"/>
			</g>
			<g class="st0">
				<defs>
					<path id="SVGID_00000104686998698087048240000013988084898777072562_" class="st0" d="M183.93,156.89l1.37,0.74
						c-2.24-1.22-3.97-1.74-5.17-1.57c-0.22,0.03-0.42,0.08-0.61,0.16c-11.15,4.56-24.7,7.96-40.63,10.2
						c-2.78,0.39-5.63,0.75-8.56,1.07c-2.57,0.27-7.94,0.8-16.09,1.55c-6.77,0.67-12.29,1.24-16.56,1.7L96.31,170
						c4.27-0.46,9.79-1.03,16.56-1.7c8.15-0.76,13.52-1.28,16.09-1.55c2.92-0.32,5.78-0.68,8.56-1.07
						c15.94-2.24,29.48-5.64,40.63-10.2c0.18-0.08,0.39-0.13,0.61-0.16C179.96,155.15,181.68,155.67,183.93,156.89z"/>
				</defs>
				<clipPath id="SVGID_00000116936997888228730560000010078857610803970984_">
					<use xlink:href="#SVGID_00000104686998698087048240000013988084898777072562_"  style="overflow:visible;"/>
				</clipPath>
				<g style="clip-path:url(#SVGID_00000116936997888228730560000010078857610803970984_);enable-background:new    ;">
					<path class="st2" d="M97.67,170.75L96.31,170c4.27-0.46,9.79-1.03,16.56-1.7c8.15-0.76,13.52-1.28,16.09-1.55
						c2.92-0.32,5.78-0.68,8.56-1.07c15.94-2.24,29.48-5.64,40.63-10.2c0.18-0.08,0.39-0.13,0.61-0.16
						c0.52-0.07,1.14-0.02,1.85,0.17l1.37,0.74c-0.71-0.19-1.33-0.24-1.85-0.17c-0.22,0.03-0.42,0.08-0.61,0.16
						c-11.15,4.56-24.7,7.96-40.63,10.2c-2.78,0.39-5.63,0.75-8.56,1.07c-2.57,0.27-7.94,0.8-16.09,1.55
						C107.46,169.72,101.94,170.29,97.67,170.75"/>
					<path class="st3" d="M181.97,156.23l-1.37-0.74c0.72,0.19,1.54,0.51,2.46,0.96l1.37,0.74
						C183.52,156.74,182.69,156.42,181.97,156.23"/>
					<path class="st4" d="M184.44,157.19l-1.37-0.74c0.28,0.14,0.56,0.28,0.86,0.45l1.37,0.74
						C185,157.47,184.71,157.33,184.44,157.19"/>
				</g>
			</g>
			<g class="st0">
				<defs>
					<path id="SVGID_00000183238111619917604180000005322329923194246020_" class="st0" d="M91.69,180.66l-1.37-0.74
						c-1.37-0.75-2.04-1.73-2-2.94c0.03-1.29,1.06-2.73,3.08-4.3c2.01-1.57,3.65-2.47,4.91-2.67l1.37,0.74
						c-1.26,0.2-2.89,1.1-4.91,2.67c-2.01,1.58-3.04,3.01-3.08,4.3C89.65,178.94,90.32,179.92,91.69,180.66z"/>
				</defs>
				<clipPath id="SVGID_00000098937818568967760410000003363062861308514185_">
					<use xlink:href="#SVGID_00000183238111619917604180000005322329923194246020_"  style="overflow:visible;"/>
				</clipPath>
				<g style="clip-path:url(#SVGID_00000098937818568967760410000003363062861308514185_);enable-background:new    ;">
					<path class="st8" d="M91.69,180.66l-1.37-0.74c-1.37-0.75-2.04-1.73-2-2.94c0.01-0.3,0.07-0.61,0.19-0.93l1.37,0.74
						c-0.12,0.32-0.18,0.63-0.19,0.93C89.65,178.94,90.32,179.92,91.69,180.66"/>
					<path class="st13" d="M89.88,176.79l-1.37-0.74c0.06-0.17,0.14-0.35,0.24-0.52l1.37,0.74
						C90.02,176.44,89.94,176.62,89.88,176.79"/>
					<path class="st14" d="M90.12,176.27l-1.37-0.74c0.1-0.18,0.21-0.36,0.34-0.54l1.37,0.74
						C90.33,175.91,90.21,176.09,90.12,176.27"/>
					<path class="st15" d="M90.46,175.72l-1.37-0.74c0.15-0.22,0.33-0.44,0.52-0.66l1.37,0.74
						C90.78,175.29,90.61,175.51,90.46,175.72"/>
					<path class="st16" d="M90.98,175.07l-1.37-0.74c0.26-0.3,0.57-0.6,0.92-0.92l1.37,0.74C91.55,174.46,91.24,174.77,90.98,175.07
						"/>
					<path class="st4" d="M91.89,174.15l-1.37-0.74c0.27-0.24,0.56-0.48,0.87-0.73c0.43-0.34,0.84-0.64,1.24-0.91l1.37,0.74
						c-0.4,0.27-0.81,0.58-1.24,0.91C92.45,173.66,92.16,173.91,91.89,174.15"/>
					<path class="st3" d="M94.01,172.5l-1.37-0.74c0.75-0.52,1.44-0.93,2.06-1.22l1.37,0.74C95.44,171.58,94.75,171.99,94.01,172.5"
						/>
					<path class="st2" d="M96.07,171.28l-1.37-0.74c0.59-0.28,1.13-0.46,1.61-0.53l1.37,0.74C97.19,170.83,96.66,171,96.07,171.28"
						/>
				</g>
			</g>
			<g>
				<path class="st9" d="M105.13,182.34c-2.89,0.31-5.85,0.19-8.9-0.35c-4.42-0.68-6.6-2.1-6.53-4.27c0.03-1.29,1.06-2.73,3.08-4.3
					c2.01-1.57,3.65-2.47,4.91-2.67c4.27-0.46,9.79-1.03,16.56-1.7c8.15-0.76,13.52-1.28,16.09-1.55c2.92-0.32,5.78-0.68,8.56-1.07
					c15.94-2.24,29.48-5.64,40.63-10.2c0.18-0.08,0.39-0.13,0.61-0.16c1.88-0.26,5.01,1.15,9.41,4.27c4.1,2.87,7.09,5.43,8.97,7.64
					l-36.8,4.02c1.66,1.1,2.81,3.33,3.47,6.7c0.69,4.44,2.06,10.87,4.14,19.28c1.11,2.91,2.24,5.82,3.41,8.73
					c1.28,3.3,2.06,6.43,2.35,9.36c-4.95-1.82-9.97-5.56-15.06-11.2c-5.7-6.26-8.47-11.96-8.33-17.1c0.07-2.37,0.67-5.1,1.83-8.19
					c1.36-3.59,2.93-5.99,4.71-7.2l-24.75,2.7c-1.48,5.91-2.99,11.86-4.54,17.84c-1.84,7.37-2.79,13.22-2.85,17.56
					c0.84,1.39,2.35,3.12,4.54,5.18c2.38,2.17,3.99,3.93,4.83,5.25l-8.88,1.99c-2.07,0.22-5.34-0.69-9.82-2.74
					c-4.47-2.05-7.02-3.99-7.66-5.82l14.88-38.01c-2.2,0.31-5.33,1.33-9.38,3.06c-3.83,1.63-6.85,2.6-9.07,2.91
					C105.39,182.31,105.26,182.32,105.13,182.34z"/>
			</g>
			<g class="st0">
				<defs>
					<path id="SVGID_00000148628634950430173440000006703647983856567956_" class="st0" d="M96.92,160.92l-1.37-0.74
						c-1.55-0.84-3.21-1.79-4.99-2.84l1.37,0.74C93.71,159.13,95.37,160.08,96.92,160.92z"/>
				</defs>
				<clipPath id="SVGID_00000153690962808668938920000001617529386490337166_">
					<use xlink:href="#SVGID_00000148628634950430173440000006703647983856567956_"  style="overflow:visible;"/>
				</clipPath>
				<g style="clip-path:url(#SVGID_00000153690962808668938920000001617529386490337166_);enable-background:new    ;">
					<path class="st8" d="M96.92,160.92l-1.37-0.74c-1.55-0.84-3.21-1.79-4.99-2.84l1.37,0.74
						C93.71,159.13,95.37,160.08,96.92,160.92"/>
				</g>
			</g>
			<g>
				<polygon class="st10" points="91.93,158.08 90.56,157.34 90.57,152.55 91.94,153.3 				"/>
			</g>
			<g class="st0">
				<defs>
					<path id="SVGID_00000010309291915598415930000004581014686237033388_" class="st0" d="M91.94,153.3l-1.37-0.74
						c1.95-0.27,4.81-0.37,8.61-0.29c3.8,0.08,6.61-0.01,8.43-0.27l1.37,0.74c-1.82,0.26-4.63,0.35-8.43,0.27
						C96.75,152.93,93.89,153.03,91.94,153.3z"/>
				</defs>
				<clipPath id="SVGID_00000146472496996359742480000012127224888248248707_">
					<use xlink:href="#SVGID_00000010309291915598415930000004581014686237033388_"  style="overflow:visible;"/>
				</clipPath>
				<g style="clip-path:url(#SVGID_00000146472496996359742480000012127224888248248707_);enable-background:new    ;">
					<path class="st2" d="M91.94,153.3l-1.37-0.74c1.95-0.27,4.81-0.37,8.61-0.29c3.8,0.08,6.61-0.01,8.43-0.27l1.37,0.74
						c-1.82,0.26-4.63,0.35-8.43,0.27C96.75,152.93,93.89,153.03,91.94,153.3"/>
				</g>
			</g>
			<g>
				<path class="st9" d="M113.19,164.74c-1.07,0.69-1.95,1.09-2.64,1.18c-2.89,0.41-9.09-2.21-18.62-7.84l0.01-4.78
					c1.95-0.27,4.81-0.37,8.61-0.29c3.8,0.08,6.61-0.01,8.43-0.27l51.68-6.86c2.96-0.42,6.77-2,11.44-4.75
					c4.68-2.76,7.56-4.22,8.63-4.37c11.17-1.57,17.28,0.01,18.35,4.73c-1.2,3.9-5.38,6.65-12.53,8.27
					c-5.28,0.74-10.55,1.48-15.82,2.22l-35.02,6.44c-4.65,0.65-11.3,2.19-19.97,4.64C115.35,163.25,114.51,163.81,113.19,164.74z"/>
			</g>
		</g>
		<g class="st0">
			<g class="st0">
				<defs>
					<path id="SVGID_00000134941334154271460180000014059900629706230680_" class="st0" d="M158.45,96.34l1.37,0.74
						c2.16,1.18,3.24,2.7,3.24,4.57c-0.01,2.9-2.18,5.59-6.53,8.07l-1.37-0.74c4.35-2.49,6.52-5.18,6.53-8.07
						C161.69,99.04,160.61,97.52,158.45,96.34z"/>
				</defs>
				<clipPath id="SVGID_00000136376171922863225990000014060333322358311096_">
					<use xlink:href="#SVGID_00000134941334154271460180000014059900629706230680_"  style="overflow:visible;"/>
				</clipPath>
				<g style="clip-path:url(#SVGID_00000136376171922863225990000014060333322358311096_);enable-background:new    ;">
					<path class="st3" d="M156.53,109.72l-1.37-0.74c0.66-0.38,1.27-0.76,1.83-1.15l1.37,0.74
						C157.8,108.96,157.19,109.35,156.53,109.72"/>
					<path class="st4" d="M158.36,108.57l-1.37-0.74c0.65-0.45,1.24-0.91,1.75-1.37l1.37,0.74
						C159.6,107.66,159.02,108.12,158.36,108.57"/>
					<path class="st16" d="M160.12,107.2l-1.37-0.74c0.37-0.33,0.71-0.67,1.01-1.01l1.37,0.74
						C160.82,106.53,160.49,106.87,160.12,107.2"/>
					<path class="st15" d="M161.13,106.19l-1.37-0.74c0.25-0.28,0.47-0.56,0.67-0.85l1.37,0.74
						C161.6,105.62,161.37,105.91,161.13,106.19"/>
					<path class="st14" d="M161.8,105.34l-1.37-0.74c0.19-0.27,0.35-0.53,0.5-0.8l1.37,0.74
						C162.15,104.81,161.98,105.07,161.8,105.34"/>
					<path class="st13" d="M162.29,104.54l-1.37-0.74c0.16-0.29,0.29-0.58,0.4-0.88l1.37,0.74
						C162.58,103.95,162.45,104.25,162.29,104.54"/>
					<path class="st8" d="M162.69,103.66l-1.37-0.74c0.24-0.66,0.36-1.33,0.36-2.01c0-1.87-1.08-3.39-3.24-4.57l1.37,0.74
						c2.16,1.18,3.24,2.7,3.24,4.57C163.05,102.33,162.93,103,162.69,103.66"/>
				</g>
			</g>
			<g class="st0">
				<defs>
					<path id="SVGID_00000178924582949895982650000005046900321192101782_" class="st0" d="M177.97,52.81l1.37,0.74
						c-0.25-0.14-0.49-0.25-0.72-0.34l-1.37-0.74C177.48,52.56,177.72,52.68,177.97,52.81z"/>
				</defs>
				<clipPath id="SVGID_00000047767494570296029870000007660731735959406987_">
					<use xlink:href="#SVGID_00000178924582949895982650000005046900321192101782_"  style="overflow:visible;"/>
				</clipPath>
				<g style="clip-path:url(#SVGID_00000047767494570296029870000007660731735959406987_);enable-background:new    ;">
					<path class="st3" d="M178.62,53.22l-1.37-0.74c0.15,0.06,0.3,0.13,0.46,0.2l1.37,0.74C178.92,53.35,178.77,53.28,178.62,53.22"
						/>
					<path class="st4" d="M179.08,53.42l-1.37-0.74c0.08,0.04,0.17,0.09,0.25,0.13l1.37,0.74
						C179.25,53.51,179.16,53.47,179.08,53.42"/>
				</g>
			</g>
			<g class="st0">
				<defs>
					<path id="SVGID_00000122002369309549431970000007536346122931339189_" class="st0" d="M159.91,88.62l1.37,0.74
						c-3.32-1.81-8.48-3.75-15.47-5.84l-1.37-0.74C151.43,84.86,156.58,86.81,159.91,88.62z"/>
				</defs>
				<clipPath id="SVGID_00000054260124163685978250000016220876486765537686_">
					<use xlink:href="#SVGID_00000122002369309549431970000007536346122931339189_"  style="overflow:visible;"/>
				</clipPath>
				<g style="clip-path:url(#SVGID_00000054260124163685978250000016220876486765537686_);enable-background:new    ;">
					<path class="st3" d="M145.81,83.52l-1.37-0.74c6.2,1.85,10.95,3.59,14.26,5.22l1.37,0.74C156.75,87.11,152,85.37,145.81,83.52"
						/>
					<path class="st4" d="M160.07,88.74L158.7,88c0.43,0.21,0.83,0.42,1.21,0.62l1.37,0.74C160.9,89.16,160.49,88.95,160.07,88.74"
						/>
				</g>
			</g>
			<g class="st0">
				<defs>
					<path id="SVGID_00000005979733443908614000000006604000799203407533_" class="st0" d="M152.77,60.81l-1.37-0.74
						c2.14-0.3,5.24-1.58,9.33-3.85c4.08-2.27,7.31-3.57,9.7-3.9c3.14-0.44,5.41-0.39,6.82,0.16l1.37,0.74
						c-1.41-0.55-3.68-0.61-6.82-0.16c-2.39,0.34-5.62,1.64-9.7,3.9C158.01,59.23,154.91,60.51,152.77,60.81z"/>
				</defs>
				<clipPath id="SVGID_00000173154079279059028480000001853558082275504294_">
					<use xlink:href="#SVGID_00000005979733443908614000000006604000799203407533_"  style="overflow:visible;"/>
				</clipPath>
				<g style="clip-path:url(#SVGID_00000173154079279059028480000001853558082275504294_);enable-background:new    ;">
					<path class="st2" d="M152.77,60.81l-1.37-0.74c1.44-0.2,3.32-0.85,5.64-1.95l1.37,0.74C156.09,59.96,154.21,60.61,152.77,60.81
						"/>
					<path class="st3" d="M158.41,58.86l-1.37-0.74c1.12-0.53,2.35-1.17,3.69-1.91c1.24-0.69,2.4-1.29,3.48-1.8l1.37,0.74
						c-1.08,0.51-2.24,1.11-3.48,1.8C160.76,57.7,159.53,58.33,158.41,58.86"/>
					<path class="st2" d="M165.57,55.16l-1.37-0.74c2.48-1.17,4.56-1.87,6.22-2.11c2.73-0.38,4.8-0.39,6.23-0.03l1.37,0.74
						c-1.42-0.37-3.5-0.36-6.23,0.03C170.13,53.29,168.06,53.99,165.57,55.16"/>
					<path class="st3" d="M178.02,53.03l-1.37-0.74c0.21,0.06,0.41,0.12,0.6,0.19l1.37,0.74C178.43,53.15,178.23,53.08,178.02,53.03
						"/>
				</g>
			</g>
			<g class="st0">
				<defs>
					<path id="SVGID_00000043448227595002185450000013616077971121572013_" class="st0" d="M119.55,112.65l-1.37-0.74
						c1.26,0.68,2.88,1.25,4.86,1.7c4.99,1.11,10.57,1.22,16.76,0.35c5.9-0.83,11.01-2.49,15.36-4.98l1.37,0.74
						c-4.35,2.49-9.47,4.15-15.36,4.98c-6.19,0.87-11.77,0.76-16.76-0.35C122.43,113.9,120.81,113.34,119.55,112.65z"/>
				</defs>
				<clipPath id="SVGID_00000024720505546579337750000004363420804923892105_">
					<use xlink:href="#SVGID_00000043448227595002185450000013616077971121572013_"  style="overflow:visible;"/>
				</clipPath>
				<g style="clip-path:url(#SVGID_00000024720505546579337750000004363420804923892105_);enable-background:new    ;">
					<path class="st4" d="M119.55,112.65l-1.37-0.74c0.14,0.08,0.29,0.15,0.44,0.23l1.37,0.74
						C119.83,112.81,119.69,112.73,119.55,112.65"/>
					<path class="st3" d="M119.98,112.88l-1.37-0.74c0.98,0.48,2.15,0.9,3.52,1.25l1.37,0.74
						C122.14,113.78,120.96,113.36,119.98,112.88"/>
					<path class="st2" d="M123.5,114.13l-1.37-0.74c0.29,0.08,0.59,0.15,0.9,0.22c4.99,1.11,10.57,1.22,16.76,0.35
						c4.81-0.68,9.11-1.91,12.89-3.69l1.37,0.74c-3.78,1.78-8.07,3.01-12.89,3.69c-6.19,0.87-11.77,0.76-16.76-0.35
						C124.1,114.28,123.79,114.21,123.5,114.13"/>
					<path class="st3" d="M154.06,111.01l-1.37-0.74c0.85-0.4,1.67-0.83,2.47-1.29l1.37,0.74
						C155.73,110.18,154.91,110.61,154.06,111.01"/>
				</g>
			</g>
			<g class="st0">
				<defs>
					<path id="SVGID_00000163787158755630352890000011409685422202219683_" class="st0" d="M142.02,75.4l1.37,0.74
						c-1.49-0.81-3.12-1.09-4.91-0.84l-1.37-0.74C138.9,74.31,140.53,74.59,142.02,75.4z"/>
				</defs>
				<clipPath id="SVGID_00000114768165637735774160000006175631256367450538_">
					<use xlink:href="#SVGID_00000163787158755630352890000011409685422202219683_"  style="overflow:visible;"/>
				</clipPath>
				<g style="clip-path:url(#SVGID_00000114768165637735774160000006175631256367450538_);enable-background:new    ;">
					<path class="st2" d="M138.48,75.3l-1.37-0.74c1.12-0.16,2.18-0.11,3.18,0.15l1.37,0.74C140.66,75.2,139.6,75.14,138.48,75.3"/>
					<path class="st3" d="M141.66,75.46l-1.37-0.74c0.49,0.13,0.97,0.31,1.44,0.54l1.37,0.74
						C142.63,75.76,142.15,75.58,141.66,75.46"/>
					<path class="st4" d="M143.1,75.99l-1.37-0.74c0.1,0.05,0.19,0.1,0.29,0.15l1.37,0.74C143.29,76.09,143.19,76.04,143.1,75.99"/>
				</g>
			</g>
			<g class="st0">
				<defs>
					<path id="SVGID_00000168105362991936007100000004889224746028617124_" class="st0" d="M136.58,82.89l-1.37-0.74
						c-0.62-1.34-1.22-3.69-1.77-7.07l1.37,0.74C135.36,79.2,135.96,81.55,136.58,82.89z"/>
				</defs>
				<clipPath id="SVGID_00000146495232546069597580000009854803255961764782_">
					<use xlink:href="#SVGID_00000168105362991936007100000004889224746028617124_"  style="overflow:visible;"/>
				</clipPath>
				<g style="clip-path:url(#SVGID_00000146495232546069597580000009854803255961764782_);enable-background:new    ;">
					<path class="st8" d="M136.58,82.89l-1.37-0.74c-0.62-1.34-1.22-3.69-1.77-7.07l1.37,0.74
						C135.36,79.2,135.96,81.55,136.58,82.89"/>
				</g>
			</g>
			<g>
				<polygon class="st6" points="134.81,75.82 133.44,75.07 137.11,74.56 138.48,75.3 				"/>
			</g>
			<g class="st0">
				<defs>
					<path id="SVGID_00000156583811226114732760000016801771528427689130_" class="st0" d="M119.13,136.89l-1.37-0.74
						c-0.76-0.41-1.5-0.87-2.22-1.36c-6.4-4.38-9.58-11.07-9.56-20.09c0.01-7.44,2.12-13.57,6.34-18.36
						c2.83-3.17,7.15-6.12,12.96-8.83c5.81-2.71,9.12-4.5,9.94-5.36l1.37,0.74c-0.82,0.86-4.13,2.65-9.94,5.36
						c-5.81,2.71-10.13,5.66-12.96,8.83c-4.21,4.79-6.32,10.92-6.34,18.36c-0.02,9.02,3.17,15.71,9.56,20.09
						C117.63,136.02,118.37,136.47,119.13,136.89z"/>
				</defs>
				<clipPath id="SVGID_00000160900126594185368300000006418920000459369145_">
					<use xlink:href="#SVGID_00000156583811226114732760000016801771528427689130_"  style="overflow:visible;"/>
				</clipPath>
				<g style="clip-path:url(#SVGID_00000160900126594185368300000006418920000459369145_);enable-background:new    ;">
					<path class="st8" d="M119.13,136.89l-1.37-0.74c-0.76-0.41-1.5-0.87-2.22-1.36c-6.4-4.38-9.58-11.07-9.56-20.09
						c0.01-3.92,0.59-7.47,1.76-10.65l1.37,0.74c-1.17,3.18-1.76,6.74-1.76,10.65c-0.02,9.02,3.17,15.71,9.56,20.09
						C117.63,136.02,118.37,136.47,119.13,136.89"/>
					<path class="st13" d="M109.11,104.78l-1.37-0.74c0.41-1.11,0.89-2.18,1.44-3.2l1.37,0.74
						C110,102.61,109.52,103.67,109.11,104.78"/>
					<path class="st14" d="M110.55,101.59l-1.37-0.74c0.45-0.83,0.95-1.64,1.49-2.42l1.37,0.74
						C111.49,99.95,110.99,100.75,110.55,101.59"/>
					<path class="st15" d="M112.03,99.17l-1.37-0.74c0.51-0.72,1.06-1.42,1.65-2.09c0.01-0.01,0.02-0.02,0.03-0.03l1.37,0.74
						c-0.01,0.01-0.02,0.02-0.03,0.03C113.09,97.75,112.54,98.45,112.03,99.17"/>
					<path class="st16" d="M113.71,97.05l-1.37-0.74c0.56-0.62,1.17-1.24,1.85-1.84l1.37,0.74
						C114.88,95.81,114.27,96.42,113.71,97.05"/>
					<path class="st4" d="M115.55,95.2l-1.37-0.74c0.97-0.88,2.06-1.73,3.28-2.57l1.37,0.74C117.62,93.47,116.53,94.33,115.55,95.2"
						/>
					<path class="st3" d="M118.83,92.63l-1.37-0.74c2.14-1.48,4.65-2.9,7.53-4.26l1.37,0.74C123.48,89.74,120.97,91.16,118.83,92.63
						"/>
					<path class="st2" d="M126.36,88.38l-1.37-0.74c0.09-0.04,0.19-0.09,0.28-0.13c0.35-0.16,0.69-0.32,1.02-0.48l1.37,0.74
						c-0.33,0.16-0.67,0.32-1.02,0.48C126.55,88.29,126.45,88.33,126.36,88.38"/>
					<path class="st3" d="M127.66,87.77l-1.37-0.74c4.16-1.96,6.89-3.4,8.21-4.3l1.37,0.74C134.56,84.37,131.82,85.8,127.66,87.77"
						/>
					<path class="st4" d="M135.87,83.46l-1.37-0.74c0.24-0.17,0.43-0.31,0.58-0.44l1.37,0.74C136.3,83.15,136.11,83.3,135.87,83.46"
						/>
					<path class="st16" d="M136.45,83.02l-1.37-0.74c0.05-0.04,0.09-0.09,0.13-0.13l1.37,0.74
						C136.54,82.93,136.5,82.97,136.45,83.02"/>
				</g>
			</g>
			<g>
				<path class="st9" d="M163.77,90.95c5.08,3.82,7.61,9.8,7.59,17.92c-0.02,8.54-3.67,15.73-10.96,21.56
					c-6.16,5-13.44,8.09-21.86,9.27c-8.6,1.21-15.82-0.18-21.64-4.18c-6.4-4.38-9.58-11.07-9.56-20.09
					c0.01-7.44,2.12-13.57,6.34-18.36c2.83-3.17,7.15-6.12,12.96-8.83c5.81-2.71,9.12-4.5,9.94-5.36c-0.62-1.34-1.22-3.69-1.77-7.07
					l3.67-0.52c2.01-0.28,3.83,0.11,5.46,1.17c1.63,1.06,2.45,2.5,2.44,4.32c0,0.88-0.2,1.79-0.57,2.73
					C154.9,86.24,160.88,88.71,163.77,90.95z M156.53,109.72c4.35-2.49,6.52-5.18,6.53-8.07c0.01-2.85-2.52-4.9-7.58-6.14
					c-4.67-1.15-10-1.3-15.97-0.46c-6.11,0.86-11.4,2.43-15.87,4.71c-4.91,2.57-7.37,5.31-7.37,8.25c-0.01,3.01,2.71,5.12,8.14,6.35
					c4.99,1.11,10.57,1.22,16.76,0.35C147.06,113.87,152.18,112.21,156.53,109.72"/>
			</g>
			<g>
				<path class="st9" d="M178.62,53.22c1.42,0.54,3.25,2.02,5.5,4.4c-1.38,2.03-2.51,3.53-3.4,4.54c-1.77,2.01-8.73,3.87-20.9,5.58
					c-1.32,0.19-3.39,0.48-6.22,0.87c-2.88,0.41-5.05,0.71-6.5,0.91c-18.2,2.56-29.41,5.69-33.62,9.39
					c-7.4,1.04-14.43-2.16-21.06-9.63l60.34-8.48c2.14-0.3,5.24-1.58,9.33-3.85c4.08-2.27,7.31-3.57,9.7-3.9
					C174.93,52.61,177.21,52.67,178.62,53.22z"/>
			</g>
			<g>
				<polygon class="st6" points="92.42,69.29 91.06,68.55 151.4,60.07 152.77,60.81 				"/>
			</g>
			<g class="st0">
				<defs>
					<path id="SVGID_00000088823808563056640720000004888880997302481298_" class="st0" d="M101.23,76.58l-1.37-0.74
						c-3.01-1.64-5.95-4.07-8.81-7.29l1.37,0.74C95.29,72.52,98.22,74.95,101.23,76.58z"/>
				</defs>
				<clipPath id="SVGID_00000144299200070401233050000010453811702971502225_">
					<use xlink:href="#SVGID_00000088823808563056640720000004888880997302481298_"  style="overflow:visible;"/>
				</clipPath>
				<g style="clip-path:url(#SVGID_00000144299200070401233050000010453811702971502225_);enable-background:new    ;">
					<path class="st8" d="M101.23,76.58l-1.37-0.74c-3.01-1.64-5.95-4.07-8.81-7.29l1.37,0.74C95.29,72.52,98.22,74.95,101.23,76.58
						"/>
				</g>
			</g>
		</g>
		<g class="st0">
			<g class="st0">
				<defs>
					<path id="SVGID_00000166638259536590484580000013015324057396059805_" class="st0" d="M156.68,36.32l1.37,0.74
						c-1.83-1-3.2-1.44-4.11-1.31l-1.37-0.74C153.48,34.88,154.85,35.32,156.68,36.32z"/>
				</defs>
				<clipPath id="SVGID_00000140709108316462962460000000846768271802815110_">
					<use xlink:href="#SVGID_00000166638259536590484580000013015324057396059805_"  style="overflow:visible;"/>
				</clipPath>
				<g style="clip-path:url(#SVGID_00000140709108316462962460000000846768271802815110_);enable-background:new    ;">
					<path class="st2" d="M153.94,35.75l-1.37-0.74c0.37-0.05,0.81-0.01,1.34,0.13l1.37,0.74C154.76,35.74,154.31,35.7,153.94,35.75
						"/>
					<path class="st3" d="M155.28,35.88l-1.37-0.74c0.58,0.15,1.25,0.41,2.01,0.79l1.37,0.74
						C156.52,36.29,155.85,36.03,155.28,35.88"/>
					<path class="st4" d="M157.29,36.67l-1.37-0.74c0.24,0.12,0.5,0.25,0.76,0.4l1.37,0.74C157.79,36.92,157.53,36.79,157.29,36.67"
						/>
				</g>
			</g>
			<g>
				<polygon class="st6" points="137.1,38.12 135.73,37.38 152.58,35.01 153.94,35.75 				"/>
			</g>
			<g class="st0">
				<defs>
					<path id="SVGID_00000176002792046483549000000016505216661375359377_" class="st0" d="M124.31,48.41l-1.37-0.74
						c-3.72-2.02-6.36-5.23-7.92-9.61l1.37,0.74C117.95,43.19,120.59,46.39,124.31,48.41z"/>
				</defs>
				<clipPath id="SVGID_00000079445794248228171470000014224281049787872137_">
					<use xlink:href="#SVGID_00000176002792046483549000000016505216661375359377_"  style="overflow:visible;"/>
				</clipPath>
				<g style="clip-path:url(#SVGID_00000079445794248228171470000014224281049787872137_);enable-background:new    ;">
					<path class="st8" d="M124.31,48.41l-1.37-0.74c-3.72-2.02-6.36-5.23-7.92-9.61l1.37,0.74
						C117.95,43.19,120.59,46.39,124.31,48.41"/>
				</g>
			</g>
			<g>
				<path class="st9" d="M143,50.5c-14.25,2-23.12-1.89-26.61-11.7c2.51-0.35,5.96-0.5,10.36-0.44c4.76,0.08,8.22,0,10.36-0.24
					l16.85-2.37c1.01-0.14,2.59,0.42,4.75,1.67c2.16,1.25,3.24,2.39,3.24,3.4C161.92,45.5,155.62,48.73,143,50.5z"/>
			</g>
			<g class="st0">
				<defs>
					<path id="SVGID_00000072968396807214114770000000008640013439273630_" class="st0" d="M116.39,38.8l-1.37-0.74
						c2.51-0.35,5.96-0.5,10.36-0.44c4.76,0.08,8.22,0,10.36-0.24l1.37,0.74c-2.14,0.24-5.59,0.32-10.36,0.24
						C122.35,38.3,118.89,38.45,116.39,38.8z"/>
				</defs>
				<clipPath id="SVGID_00000151525450126284023910000002652965153113232770_">
					<use xlink:href="#SVGID_00000072968396807214114770000000008640013439273630_"  style="overflow:visible;"/>
				</clipPath>
				<g style="clip-path:url(#SVGID_00000151525450126284023910000002652965153113232770_);enable-background:new    ;">
					<path class="st2" d="M116.39,38.8l-1.37-0.74c2.51-0.35,5.96-0.5,10.36-0.44c4.76,0.08,8.22,0,10.36-0.24l1.37,0.74
						c-2.14,0.24-5.59,0.32-10.36,0.24C122.35,38.3,118.89,38.45,116.39,38.8"/>
				</g>
			</g>
		</g>
	</g>
</g>
</svg>
